<svg width="24" height="24" viewBox="0 0 24 24" fill="none" xmlns="http://www.w3.org/2000/svg">
  <path fill-rule="evenodd" clip-rule="evenodd" d="M12 2C6.475 2 2 6.486 2 12.021c0 4.433 2.865 8.192 6.839 9.51.5.093.684-.217.684-.482 0-.237-.009-.866-.014-1.7-2.782.605-3.369-1.343-3.369-1.343-.455-1.158-1.11-1.467-1.11-1.467-.907-.62.069-.607.069-.607 1.004.071 1.532 1.032 1.532 1.032.892 1.53 2.341 1.088 2.91.833.091-.647.35-1.088.636-1.339-2.222-.253-4.555-1.112-4.555-4.949 0-1.093.39-1.988 1.029-2.688-.103-.253-.446-1.272.098-2.65 0 0 .84-.27 2.75 1.026A9.564 9.564 0 0 1 12 6.844c.85.004 1.705.115 2.504.337 1.909-1.296 2.748-1.026 2.748-1.026.546 1.378.202 2.397.1 2.65.64.7 1.028 1.595 1.028 2.688 0 3.846-2.337 4.693-4.565 4.94.359.31.679.92.679 1.854 0 1.337-.012 2.416-.012 2.743 0 .268.18.58.688.481A10.026 10.026 0 0 0 22 12.021C22 6.486 17.523 2 12 2Z" fill="currentColor"/>
</svg>